:FULLY-SPECIFIED
:FORCE-ALL-JOINTS-BE-3DOF
:DEGREES
102
root 7.42042 16.7278 -26.7246 2.39051 11.5181 -3.29557
lfemur -24.9605 -1.39732 -12.3691
ltibia 38.1807 -0 0
lfoot -17.4613 -6.60707 -0.012497
ltoes 24.4013 -0 0
rfemur -38.4571 -4.27894 3.16567
rtibia 83.2992 -0 0
rfoot 27.6275 18.799 1.76672
rtoes 16.2195 -0 0
lowerback 2.56861 1.36751 0.0432786
upperback -0.448163 1.87075 1.92743
thorax -1.94203 0.941724 1.9003
lowerneck -10.6031 -4.73062 2.27091
upperneck -0.923498 -6.56372 0.883701
head 1.45042 -3.24916 -0.392384
lclavicle -9.23285e-15 -5.128e-17 -1.86365e-31
lhumerus -46.3519 -10.4714 93.773
lradius 48.8311 -0 0
lwrist 14.6409 0 0
lhand 6.67108 8.41537 0.0822402
lfingers 7.12502 -0 0
lthumb 31.9514 35.5273 0.0485059
rclavicle -9.23285e-15 -5.128e-17 -1.86365e-31
rhumerus -42.2603 1.3252 -71.0253
rradius 49.956 -0 0
rwrist 4.16353 0 0
rhand -22.1396 -16.2736 0.000210938
rfingers 7.12502 -0 0
rthumb 4.27401 -46.2105 0.000203866
103
root 7.46638 16.7292 -26.6925 2.05758 11.8367 -3.18524
lfemur -24.4071 -1.84384 -12.5267
ltibia 37.8548 -0 0
lfoot -17.4059 -7.07785 -0.00760337
ltoes 24.5931 -0 0
rfemur -39.6094 -4.46416 2.30684
rtibia 85.7664 -0 0
rfoot 30.0313 20.1952 1.0701
rtoes 17.2852 -0 0
lowerback 2.81221 1.2689 -0.106693
upperback -0.385328 1.73409 1.97911
thorax -2.0238 0.877026 2.02837
lowerneck -10.6146 -4.7744 2.22667
upperneck -0.741637 -6.62009 0.85836
head 1.51062 -3.27516 -0.398558
lclavicle -9.77098e-15 -7.76013e-16 -1.134e-31
lhumerus -46.4897 -10.5696 93.8745
lradius 48.997 -0 0
lwrist 14.8596 0 0
lhand 7.36298 8.66271 0.0500224
lfingers 7.12502 -0 0
lthumb 32.6142 35.6797 0.0295052
rclavicle -9.77098e-15 -7.76013e-16 -1.134e-31
rhumerus -42.4725 1.28753 -70.2574
rradius 50.1789 -0 0
rwrist 4.04139 0 0
rhand -22.1371 -16.0968 0.000128346
rfingers 7.12502 -0 0
rthumb 4.27642 -46.0336 0.000124043
104
root 7.50107 16.7304 -26.6683 1.80645 12.0775 -3.10313
lfemur -23.9886 -2.17976 -12.6485
ltibia 37.6088 -0 0
lfoot -17.3641 -7.43318 -0.00360831
ltoes 24.7379 -0 0
rfemur -40.4774 -4.61534 1.66103
rtibia 87.6286 -0 0
rfoot 31.8337 21.2289 0.505991
rtoes 18.0897 -0 0
lowerback 2.99624 1.1949 -0.220161
upperback -0.337989 1.63091 2.01801
thorax -2.08561 0.828317 2.1251
lowerneck -10.6233 -4.80744 2.19329
upperneck -0.604351 -6.66258 0.839113
head 1.55606 -3.29478 -0.403237
lclavicle -1.01772e-14 -1.32302e-15 -5.38202e-32
lhumerus -46.5938 -10.6435 93.9513
lradius 49.1222 -0 0
lwrist 15.0246 0 0
lhand 7.88497 8.84908 0.0237362
lfingers 7.12502 -0 0
lthumb 33.1143 35.7945 0.014001
rclavicle -1.01772e-14 -1.32302e-15 -5.38202e-32
rhumerus -42.6329 1.26098 -69.6779
rradius 50.3471 -0 0
rwrist 3.94921 0 0
rhand -22.1352 -15.9634 6.09107e-05
rfingers 7.12502 -0 0
rthumb 4.27824 -45.9001 5.88685e-05
105
root 7.52298 16.7311 -26.653 1.64785 12.2299 -3.05178
lfemur -23.7237 -2.39153 -12.7268
ltibia 37.4534 -0 0
lfoot -17.3377 -7.65767 -0.000950695
ltoes 24.8294 -0 0
rfemur -41.0249 -4.71586 1.25418
rtibia 88.805 -0 0
rfoot 32.967 21.8725 0.132989
rtoes 18.5979 -0 0
lowerback 3.11258 1.14833 -0.291969
upperback -0.308119 1.56571 2.04254
thorax -2.1247 0.797599 2.18623
lowerneck -10.6288 -4.82832 2.1722
upperneck -0.517609 -6.6894 0.8269
head 1.58476 -3.30717 -0.4062
lclavicle -1.04338e-14 -1.6686e-15 -1.41809e-32
lhumerus -46.6596 -10.6902 93.9999
lradius 49.2013 -0 0
lwrist 15.1289 0 0
lhand 8.21473 8.9667 0.00625347
lfingers 7.12502 -0 0
lthumb 33.4303 35.867 0.00368871
rclavicle -1.04338e-14 -1.6686e-15 -1.41809e-32
rhumerus -42.7344 1.24505 -69.3118
rradius 50.4534 -0 0
rwrist 3.89097 0 0
rhand -22.134 -15.8791 1.60484e-05
rfingers 7.12502 -0 0
rthumb 4.27939 -45.8158 1.55103e-05
106
root 7.53062 16.7313 -26.6477 1.59258 12.283 -3.03397
lfemur -23.6313 -2.46527 -12.7543
ltibia 37.3992 0 0
lfoot -17.3285 -7.73592 0
ltoes 24.8613 0 0
rfemur -41.2156 -4.75181 1.11259
rtibia 89.2151 0 0
rfoot 33.361 22.0951 0
rtoes 18.775 0 0
lowerback 3.15315 1.13213 -0.317021
upperback -0.297715 1.54298 2.05108
thorax -2.13833 0.786902 2.20754
lowerneck -10.6307 -4.8356 2.16485
upperneck -0.487372 -6.69874 0.822634
head 1.59477 -3.31149 -0.407235
lclavicle -1.05232e-14 -1.78906e-15 0
lhumerus -46.6826 -10.7064 94.0168
lradius 49.2289 0 0
lwrist 15.1652 0 0
lhand 8.32967 9.00768 0
lfingers 7.12502 0 0
lthumb 33.5404 35.8923 0
rclavicle -1.05232e-14 -1.78906e-15 0
rhumerus -42.7698 1.23965 -69.1841
rradius 50.4904 0 0
rwrist 3.87067 0 0
rhand -22.1336 -15.8497 0
rfingers 7.12502 0 0
rthumb 4.27979 -45.7864 0
107
root 7.5338 16.7322 -26.6463 1.51723 12.2512 -3.00402
lfemur -23.4988 -2.39262 -12.8103
ltibia 37.3473 -0 0
lfoot -17.3106 -7.75198 -0.000378042
ltoes 24.9038 -0 0
rfemur -41.4067 -4.93586 1.27246
rtibia 88.9449 -0 0
rfoot 33.1413 22.0938 0.000394061
rtoes 18.434 -0 0
lowerback 3.2323 1.11053 -0.344508
upperback -0.262416 1.51337 2.04291
thorax -2.14282 0.772062 2.21822
lowerneck -10.6415 -4.81285 2.15692
upperneck -0.475462 -6.66817 0.826229
head 1.60115 -3.29601 -0.403477
lclavicle -1.04974e-14 -1.63587e-15 -5.1975e-33
lhumerus -46.6463 -10.739 94.0048
lradius 49.2395 -0 0
lwrist 15.1531 0 0
lhand 8.32055 8.98789 0.000237562
lfingers 7.12502 -0 0
lthumb 33.5317 35.8743 0.00020518
rclavicle -1.04974e-14 -1.63587e-15 -5.1975e-33
rhumerus -42.7472 1.17049 -69.087
rradius 50.6012 -0 0
rwrist 3.78396 0 0
rhand -21.923 -15.8621 -0.00351614
rfingers 7.12502 -0 0
rthumb 4.48198 -45.7771 0.00254339
108
root 7.54294 16.7348 -26.6421 1.30102 12.1603 -2.91787
lfemur -23.1191 -2.1835 -12.9701
ltibia 37.1983 -0 0
lfoot -17.2593 -7.79806 -0.00143481
ltoes 25.0255 -0 0
rfemur -41.9582 -5.46096 1.73482
rtibia 88.1698 -0 0
rfoot 32.5111 22.09 0.00149641
rtoes 17.4555 -0 0
lowerback 3.45943 1.04879 -0.423528
upperback -0.16113 1.42844 2.01937
thorax -2.15572 0.729491 2.24886
lowerneck -10.6726 -4.74758 2.13415
upperneck -0.441284 -6.58048 0.836578
head 1.61945 -3.2516 -0.392688
lclavicle -1.04235e-14 -1.19638e-15 -1.97259e-32
lhumerus -46.5421 -10.8326 93.9702
lradius 49.2697 -0 0
lwrist 15.1183 0 0
lhand 8.29439 8.93112 0.000901635
lfingers 7.12502 -0 0
lthumb 33.5068 35.8228 0.000778729
rclavicle -1.04235e-14 -1.19638e-15 -1.97259e-32
rhumerus -42.683 0.97188 -68.8084
rradius 50.9191 -0 0
rwrist 3.53522 0 0
rhand -21.3187 -15.8976 -0.0133516
rfingers 7.12502 -0 0
rthumb 5.06208 -45.7503 0.00965746
109
root 7.5574 16.7389 -26.6355 0.958668 12.017 -2.78086
lfemur -22.5193 -1.85028 -13.2201
ltibia 36.9626 -0 0
lfoot -17.1782 -7.871 -0.00302327
ltoes 25.2183 -0 0
rfemur -42.8408 -6.283 2.47797
rtibia 86.9428 -0 0
rfoot 31.5137 22.0839 0.00315534
rtoes 15.9066 -0 0
lowerback 3.81909 0.951696 -0.549095
upperback -0.00074651 1.29409 1.9818
thorax -2.17618 0.66212 2.29738
lowerneck -10.7219 -4.64428 2.09804
upperneck -0.387161 -6.44167 0.853065
head 1.64843 -3.18131 -0.375582
lclavicle -1.03064e-14 -5.00729e-16 -4.15626e-32
lhumerus -46.377 -10.9807 93.915
lradius 49.3177 -0 0
lwrist 15.0632 0 0
lhand 8.25298 8.84126 0.00189981
lfingers 7.12502 -0 0
lthumb 33.4675 35.7412 0.00164083
rclavicle -1.03064e-14 -5.00729e-16 -4.15626e-32
rhumerus -42.5835 0.656902 -68.3681
rradius 51.4223 -0 0
rwrist 3.14151 0 0
rhand -20.3624 -15.954 -0.0281517
rfingers 7.12502 -0 0
rthumb 5.98024 -45.7077 0.0203615
